<svg width="30" height="30" viewBox="0 0 30 30" fill="none" xmlns="http://www.w3.org/2000/svg">
<path d="M15 28.3309C14.5729 28.3309 14.1611 28.1762 13.8402 27.8952C12.6283 26.8354 11.4599 25.8396 10.429 24.9611L10.4237 24.9565C7.40134 22.3809 4.7914 20.1567 2.97546 17.9656C0.945509 15.5161 0 13.1936 0 10.6565C0 8.19144 0.845259 5.91727 2.37991 4.25262C3.93287 2.56828 6.06376 1.64062 8.38072 1.64062C10.1124 1.64062 11.6984 2.18811 13.0943 3.26774C13.7988 3.81271 14.4374 4.47967 15 5.25764C15.5628 4.47967 16.2011 3.81271 16.9059 3.26774C18.3018 2.18811 19.8877 1.64062 21.6194 1.64062C23.9362 1.64062 26.0673 2.56828 27.6203 4.25262C29.1549 5.91727 29.9999 8.19144 29.9999 10.6565C29.9999 13.1936 29.0547 15.5161 27.0247 17.9654C25.2088 20.1567 22.5991 22.3807 19.5771 24.9561C18.5444 25.8359 17.3742 26.8334 16.1595 27.8956C15.8388 28.1762 15.4268 28.3309 15 28.3309ZM8.38072 3.39798C6.56043 3.39798 4.88822 4.12445 3.67172 5.44372C2.43713 6.7829 1.75712 8.6341 1.75712 10.6565C1.75712 12.7904 2.5502 14.6988 4.32838 16.8443C6.04705 18.9182 8.60342 21.0967 11.5633 23.6192L11.5688 23.6238C12.6036 24.5056 13.7766 25.5054 14.9975 26.5729C16.2256 25.5033 17.4005 24.502 18.4373 23.6187C21.397 21.0962 23.9531 18.9182 25.6718 16.8443C27.4497 14.6988 28.2428 12.7904 28.2428 10.6565C28.2428 8.6341 27.5628 6.7829 26.3282 5.44372C25.112 4.12445 23.4395 3.39798 21.6194 3.39798C20.286 3.39798 19.0617 3.82186 17.9807 4.65774C17.0173 5.40298 16.3463 6.34505 15.9528 7.00423C15.7505 7.34321 15.3943 7.54554 15 7.54554C14.6056 7.54554 14.2495 7.34321 14.0471 7.00423C13.6539 6.34505 12.9828 5.40298 12.0192 4.65774C10.9382 3.82186 9.71396 3.39798 8.38072 3.39798Z" fill="white"/>
</svg>
