<svg width="54" height="70" viewBox="0 0 54 70" fill="none" xmlns="http://www.w3.org/2000/svg">
<path d="M10.9981 37.7378C13.9628 37.7378 16.7356 39.0061 18.7456 41.0617C20.6543 43.1107 21.9015 45.8534 21.9015 48.9811C21.9015 52.0111 20.6551 54.8474 18.7456 56.9014C16.7356 58.9512 13.9628 60.2253 10.9981 60.2253C7.93858 60.2253 5.165 58.9512 3.15585 56.9014C1.24145 54.8474 0 52.0111 0 48.9811C0 45.8534 1.24064 43.013 3.15585 41.0617C5.165 39.0069 7.93858 37.7378 10.9981 37.7378ZM17.8864 41.8415C16.1631 39.9879 13.6761 38.9092 10.9981 38.9092C8.22445 38.9092 5.73752 39.9879 4.0191 41.8415C2.20025 43.7009 1.14508 46.1457 1.14508 48.9811C1.14508 51.7189 2.20025 54.2563 4.0191 56.1207C5.73752 57.8774 8.22445 59.0489 10.9981 59.0489C13.6761 59.0489 16.1631 57.8774 17.8864 56.1207C19.7004 54.2563 20.7507 51.7189 20.7507 48.9811C20.7507 46.1465 19.7004 43.7009 17.8864 41.8415Z" fill="white"/>
<path d="M17.2135 57.8774V69.4147C17.2135 69.7069 17.0231 70 16.7356 70C16.5453 70 16.3542 69.9023 16.2587 69.8046L10.9981 64.7198L5.54727 69.8046C5.35615 69.9999 4.97471 69.9999 4.78359 69.8046C4.68803 69.7077 4.68805 69.5124 4.68805 69.4147V57.8774C4.68805 57.4867 4.87916 57.2921 5.16584 57.2921C5.35614 57.2921 5.4525 57.2921 5.54806 57.389C6.31171 57.8774 7.17581 58.2682 8.13058 58.5604C8.98979 58.8527 9.9494 59.0488 10.9997 59.0488C11.9545 59.0488 12.9141 58.8535 13.7733 58.5604C14.7281 58.2674 15.5922 57.8774 16.3566 57.389C16.6433 57.1944 17.0248 57.2921 17.1203 57.4867C17.2135 57.5852 17.2135 57.682 17.2135 57.8774ZM16.1631 68.0479V58.8535C15.495 59.1474 14.8221 59.4396 14.1532 59.7368C13.1028 60.0291 12.0476 60.2253 10.9981 60.2253C9.85221 60.2253 8.79703 60.0299 7.7467 59.7368C7.07941 59.4396 6.40565 59.1466 5.73675 58.8535V68.0479L10.6159 63.5483C10.807 63.3529 11.0937 63.3529 11.3795 63.5483L16.1631 68.0479Z" fill="white"/>
<path d="M14.9176 0C15.2083 0 15.3994 0.293074 15.3994 0.586141C15.3994 0.879208 15.2091 1.17147 14.9176 1.17147H12.144V38.3231C12.144 38.6162 11.8573 38.9092 11.5714 38.9092C11.2847 38.9092 10.998 38.6162 10.998 38.3231V0.586141C10.998 0.293074 11.2847 0 11.5714 0H14.9176ZM21.3281 49.2742C21.0414 49.2742 20.8462 48.9819 20.8462 48.6889C20.8462 48.3917 21.0414 48.1955 21.3281 48.1955H46.289V1.17147H24.3876C24.1009 1.17147 23.815 0.87838 23.815 0.586141C23.815 0.293074 24.1017 0 24.3876 0H46.8623C47.149 0 47.3393 0.293074 47.3393 0.586141V48.6889C47.3393 48.9819 47.149 49.2742 46.8623 49.2742H21.3281Z" fill="white"/>
<path d="M16.2586 24.4396C15.9728 24.4396 15.7808 24.2451 15.7808 23.952C15.7808 23.5612 15.972 23.3658 16.2586 23.3658H39.0193C39.306 23.3658 39.4971 23.5612 39.4971 23.952C39.4971 24.2442 39.3068 24.4396 39.0193 24.4396H16.2586Z" fill="white"/>
<path d="M16.2586 19.4517C15.9728 19.4517 15.7808 19.1594 15.7808 18.8663C15.7808 18.5733 15.972 18.3779 16.2586 18.3779H34.7183C35.0042 18.3779 35.2909 18.5733 35.2909 18.8663C35.2909 19.1594 35.0042 19.4517 34.7183 19.4517H16.2586Z" fill="white"/>
<path d="M16.2586 14.3678C15.9728 14.3678 15.7808 14.1724 15.7808 13.8793C15.7808 13.5871 15.972 13.2941 16.2586 13.2941H39.0193C39.306 13.2941 39.4971 13.5871 39.4971 13.8793C39.4971 14.1724 39.3068 14.3678 39.0193 14.3678H16.2586Z" fill="white"/>
<path d="M16.2586 9.38473C15.9728 9.38473 15.7808 9.18936 15.7808 8.79364C15.7808 8.50057 15.972 8.30603 16.2586 8.30603H31.654C31.9447 8.30603 32.1359 8.50057 32.1359 8.79364C32.1359 9.18853 31.9455 9.38473 31.654 9.38473H16.2586Z" fill="white"/>
<path d="M25.9156 57.0968C25.629 57.0968 25.4379 56.8037 25.4379 56.5115C25.4379 56.2192 25.629 55.9262 25.9156 55.9262H52.6954V8.40462C52.6954 8.11155 52.9821 7.81848 53.2679 7.81848C53.5595 7.81848 53.8461 8.11155 53.8461 8.40462V56.5115C53.8461 56.8045 53.5603 57.0968 53.2679 57.0968H25.9156Z" fill="white"/>
<path d="M16.2586 29.4268C15.9728 29.4268 15.7808 29.2322 15.7808 28.9392C15.7808 28.6469 15.972 28.353 16.2586 28.353H23.4328C23.7195 28.353 24.0061 28.6469 24.0061 28.9392C24.0061 29.2322 23.7195 29.4268 23.4328 29.4268H16.2586Z" fill="white"/>
<path d="M10.9981 42.4277C12.7214 42.4277 14.3443 43.1099 15.495 44.2863C16.6409 45.4627 17.4045 47.1218 17.4045 48.9812C17.4045 50.7429 16.6409 52.4028 15.495 53.5734C14.3443 54.7498 12.7214 55.5296 10.9981 55.5296C9.17922 55.5296 7.55639 54.7498 6.40564 53.5734C5.26056 52.4028 4.49689 50.7429 4.49689 48.9812C4.49689 47.1218 5.26056 45.4627 6.40564 44.2863C7.55639 43.1099 9.17922 42.4277 10.9981 42.4277ZM14.7265 45.1705C13.7717 44.1894 12.4355 43.5064 10.9981 43.5064C9.47076 43.5064 8.12891 44.1886 7.17413 45.1705C6.2145 46.1465 5.64118 47.4148 5.64118 48.982C5.64118 50.4465 6.2145 51.8175 7.17413 52.7927C8.12891 53.7696 9.47076 54.3549 10.9981 54.3549C12.4355 54.3549 13.7717 53.7696 14.7265 52.7927C15.6853 51.8167 16.2586 50.4457 16.2586 48.982C16.2586 47.4148 15.6853 46.1465 14.7265 45.1705Z" fill="white"/>
</svg>
