<svg width="66" height="60" viewBox="0 0 66 60" fill="none" xmlns="http://www.w3.org/2000/svg">
<path d="M24.8626 7.21859C24.5468 7.42911 24.1267 7.32386 23.9161 7.00897C23.7056 6.79933 23.8109 6.3729 24.1267 6.16237L32.4505 0.157895C32.7663 -0.0526316 32.9768 -0.0526316 33.1864 0.157895L65.5317 23.3372C65.7413 23.5468 65.8466 23.9679 65.6369 24.1775C65.5317 24.3881 65.3211 24.4987 65.1115 24.4987H56.6824V43.0339C56.6824 43.4603 56.4719 43.67 56.0508 43.67C55.9402 43.67 55.835 43.6699 55.7297 43.5647L49.1989 40.1891V43.8814C49.1989 44.1972 48.8831 44.512 48.5682 44.512H33.5031V50.0972H48.5682C48.8831 50.0972 49.1989 50.4121 49.1989 50.7279V54.4139L55.7297 50.9385C56.0508 50.8332 56.4719 50.9385 56.5763 51.2543C56.6815 51.3595 56.6815 51.4648 56.6815 51.4648V59.4737C56.6815 59.7895 56.471 60 56.0499 60H9.69224C9.27119 60 9.06066 59.7895 9.06066 59.4737V39.8751C9.06066 39.5593 9.27119 39.2445 9.69224 39.2445C9.79751 39.2445 9.90187 39.3497 10.0125 39.3497L16.5433 42.8252V39.1383C16.5433 38.8225 16.8591 38.5076 17.1739 38.5076H32.24V32.9224H17.1739C16.8582 32.9224 16.5433 32.6066 16.5433 32.2917V28.4951L9.90188 31.9759C9.69224 32.1856 9.27118 32.0812 9.06066 31.7654C9.06066 31.661 9.06066 31.5557 9.06066 31.4496V24.4987H0.631586C0.315796 24.4987 0 24.1775 0 23.8617C0 23.5468 0.105267 23.4407 0.315793 23.3363L15.1713 12.5932C15.4871 12.3827 15.802 12.488 16.0125 12.6976C16.223 13.0134 16.223 13.4336 15.9072 13.645L2.52988 23.2311H9.69224C10.0125 23.2311 10.3283 23.4407 10.3283 23.8617V30.3925L16.8591 27.0223C16.9643 26.9171 17.0696 26.917 17.1748 26.917C17.4906 26.917 17.8064 27.1276 17.8064 27.5478V31.6601H32.8715C33.1864 31.6601 33.5022 31.8697 33.5022 32.2908V39.1374C33.5022 39.4523 33.1864 39.7681 32.8715 39.7681H17.8064V43.8805C17.8064 43.9857 17.8064 44.0901 17.7012 44.1962C17.5959 44.5111 17.1748 44.6173 16.8599 44.4059L10.3292 40.9251V58.8359H55.4148V52.5147L48.884 55.9955C48.7788 56.1008 48.6744 56.1008 48.5691 56.1008C48.2533 56.1008 47.9385 55.7841 47.9385 55.4692V51.3577H32.8724C32.5566 51.3577 32.2417 51.0429 32.2417 50.7271V43.8805C32.2417 43.4594 32.5575 43.2435 32.8724 43.2435H47.9385V39.1374C47.9385 39.0321 47.9384 38.9269 48.0437 38.8216C48.149 38.5058 48.5691 38.4006 48.8849 38.5058L55.4157 41.9768V23.8609C55.4157 23.4398 55.7306 23.2302 56.0517 23.2302H63.2141L32.8724 1.42373L24.8626 7.21859Z" fill="white"/>
<path d="M62.686 47.2462L49.198 40.1891V43.8813C49.198 44.1971 48.8822 44.512 48.5674 44.512H33.5022V50.0972H48.5674C48.8822 50.0972 49.198 50.4121 49.198 50.7279V54.4139L62.686 47.2462ZM51.0963 39.768L64.3684 46.7199C64.4737 46.8251 64.578 46.8251 64.578 47.0347C64.7886 47.2453 64.6833 47.6717 64.3684 47.8813L48.8822 55.9955C48.777 56.1007 48.6726 56.1008 48.5674 56.1008C48.2516 56.1008 47.9367 55.7841 47.9367 55.4692V51.3577H32.8706C32.5549 51.3577 32.24 51.0428 32.24 50.727V43.8804C32.24 43.4594 32.5557 43.2435 32.8706 43.2435H47.9367V39.1374C47.9367 39.0321 47.9367 38.9268 48.0419 38.8216C48.1472 38.5058 48.5674 38.4005 48.8831 38.5058L51.0963 39.768Z" fill="white"/>
<path d="M1.36754 35.1303C6.53168 32.397 11.6949 29.6566 16.8591 26.917C17.1748 26.8118 17.595 26.917 17.7003 27.2328C17.8055 27.3381 17.8055 27.4434 17.8055 27.5478V31.6601H32.8706C33.1855 31.6601 33.5013 31.8697 33.5013 32.2908V39.1374C33.5013 39.4523 33.1855 39.7681 32.8706 39.7681H17.8055V43.8805C17.8055 44.1962 17.4897 44.5112 17.174 44.5112C17.0687 44.5112 16.9643 44.5112 16.8582 44.4059L1.36664 36.2917C1.05085 36.0821 0.946475 35.661 1.05085 35.3408C1.157 35.2355 1.26317 35.2355 1.36754 35.1303ZM15.1713 29.231L2.95094 35.6619L16.5442 42.8243V39.1374C16.5442 38.8216 16.86 38.5067 17.1749 38.5067H32.2409V32.9215H17.1749C16.8591 32.9215 16.5442 32.6057 16.5442 32.2908V28.4942L15.1713 29.231Z" fill="white"/>
<path d="M32.8707 11.0107C34.4479 11.0107 35.926 11.7467 36.9777 12.8038C38.0348 13.8555 38.6655 15.2231 38.6655 16.91C38.6655 18.4925 38.0348 19.9653 36.9777 21.0179C35.926 22.0696 34.4479 22.7003 32.8707 22.7003C31.2882 22.7003 29.8154 22.0696 28.7592 21.0179C27.7075 19.9653 27.0759 18.4934 27.0759 16.91C27.0759 15.2222 27.7075 13.8546 28.7592 12.8038C29.8154 11.7467 31.2882 11.0107 32.8707 11.0107ZM36.0313 13.645C35.2953 12.909 34.133 12.3828 32.8707 12.3828C31.6084 12.3828 30.447 12.909 29.7101 13.645C28.8689 14.4853 28.3372 15.6424 28.3372 16.91C28.3372 18.067 28.8689 19.2293 29.7101 20.0705C30.4461 20.9117 31.6084 21.3328 32.8707 21.3328C34.133 21.3328 35.2953 20.9117 36.0313 20.0705C36.8725 19.2293 37.4033 18.067 37.4033 16.91C37.4033 15.6424 36.8734 14.4862 36.0313 13.645Z" fill="white"/>
</svg>
