<svg width="62" height="54" viewBox="0 0 62 54" fill="none" xmlns="http://www.w3.org/2000/svg">
<path d="M30.3283 22.1696C32.8224 19.6802 36.14 18.4835 39.4576 18.4835C42.6831 18.4835 46.0015 19.6802 48.49 22.1696C50.9786 24.751 52.18 27.9789 52.18 31.2965C52.18 34.5243 50.9786 37.8419 48.49 40.3313C46.0007 42.8206 42.6823 44.1094 39.4576 44.1094C36.14 44.1094 32.8224 42.8214 30.3283 40.3313C27.8437 37.8419 26.6423 34.5243 26.6423 31.2965C26.6423 27.9789 27.8437 24.751 30.3283 22.1696ZM39.4576 19.5881C36.4163 19.5881 33.4664 20.7871 31.1613 23.0001C28.8561 25.3053 27.7516 28.2544 27.7516 31.2965C27.7516 34.2456 28.8561 37.1956 31.1613 39.5007C33.4664 41.8066 36.4163 42.9128 39.4576 42.9128C42.4067 42.9128 45.3567 41.8066 47.6618 39.5007C49.967 37.1956 51.0715 34.2456 51.0715 31.2965C51.0715 28.2552 49.967 25.3053 47.6618 23.0001C45.3567 20.7863 42.4067 19.5881 39.4576 19.5881Z" fill="white"/>
<path d="M50.6117 36.5516L61.8618 47.7979C62.0461 47.9837 62.0461 48.3521 61.8618 48.5364L56.6997 53.6993C56.5155 53.8835 56.1423 53.8835 55.8668 53.6993L44.7126 42.5452C44.5292 42.2665 44.5292 41.8988 44.7126 41.7146C44.8047 41.6225 44.8047 41.6225 44.8968 41.5304C45.3566 41.3461 45.9093 40.9761 46.3737 40.6998C46.7422 40.3314 47.2028 39.9637 47.6618 39.5008C48.1223 39.1331 48.4907 38.6702 48.7663 38.2104C49.1394 37.7507 49.5071 37.1956 49.6913 36.7359C49.8756 36.4603 50.244 36.3674 50.5203 36.4603L50.6117 36.5516ZM60.6605 48.1679L50.3353 37.9341C50.1511 38.2104 49.9661 38.5781 49.6906 38.8568C49.3229 39.4095 48.9497 39.8716 48.49 40.3314C48.0294 40.7919 47.5696 41.1619 47.0177 41.6217C46.7406 41.8059 46.373 41.9901 46.092 42.2657L56.325 52.4995L60.6605 48.1679Z" fill="white"/>
<path d="M59.8284 45.954C59.8284 46.3248 59.5528 46.509 59.2765 46.509C58.908 46.509 58.7238 46.3248 58.7238 45.954V13.1348L38.1695 1.24449L17.6098 13.1348V47.6128H51.1636C51.5367 47.6128 51.7201 47.8892 51.7201 48.1678C51.7201 48.4442 51.5367 48.7197 51.1636 48.7197H17.0579C16.7776 48.7197 16.5013 48.4434 16.5013 48.1678V12.8584C16.5013 12.675 16.5926 12.49 16.7776 12.3987L37.8893 0.137583C38.0774 -0.0458609 38.2616 -0.0458609 38.4458 0.137583L59.4607 12.3065C59.6441 12.3987 59.8291 12.5829 59.8291 12.8584V45.954H59.8284Z" fill="white"/>
<path d="M9.3135 47.6128H16.5013V12.8584C16.5013 12.675 16.5927 12.3987 16.7777 12.3065L32.9145 2.99306L29.8693 1.24449L9.31428 13.1348V47.6128H9.3135ZM17.0579 48.7197H8.7616C8.48058 48.7197 8.20425 48.4434 8.20425 48.1678V12.8584C8.20425 12.675 8.29636 12.49 8.47981 12.3987L29.5915 0.137583C29.7757 -0.0458609 29.9599 -0.0458609 30.1441 0.137583L34.2946 2.53251C34.3859 2.53251 34.478 2.62461 34.478 2.71672C34.6615 2.99306 34.5702 3.27096 34.2946 3.45518L17.609 13.134V48.1671C17.6098 48.4442 17.3335 48.7197 17.0579 48.7197Z" fill="white"/>
<path d="M0 32.7711C0 32.4947 0.184225 32.2184 0.551893 32.2184C0.827449 32.2184 1.10379 32.4947 1.10379 32.7711V47.6128H8.20424V12.8584C8.20424 12.675 8.38845 12.3987 8.57267 12.3065L24.6135 2.99306L21.573 1.24449L1.10457 13.1348V19.2196C1.10457 19.5881 0.828235 19.7723 0.552679 19.7723C0.185011 19.7723 0.000786138 19.5881 0.000786138 19.2196V12.8584C0.000786138 12.675 0.0928958 12.49 0.27634 12.3987L21.2959 0.137583C21.4801 -0.0458609 21.7564 -0.0458609 21.8485 0.137583L25.9983 2.53251C26.0904 2.53251 26.1825 2.62461 26.1825 2.71672C26.3659 2.99306 26.2738 3.27096 25.9983 3.45518L9.31348 13.134V48.1671C9.31348 48.4434 9.13003 48.7189 8.76158 48.7189H0.551893C0.184225 48.7189 0 48.4426 0 48.1671V32.7711Z" fill="white"/>
<path d="M32.6382 26.3176C32.9145 26.0413 33.283 26.0413 33.4672 26.3176C33.7435 26.5018 33.7435 26.8695 33.5593 27.0561C33.4672 27.0561 30.9771 29.6375 32.8232 33.233C33.0066 33.5094 32.8232 33.8778 32.5469 33.9692C32.2666 34.1534 31.9895 34.0613 31.8061 33.7857C29.5915 29.3612 32.6382 26.3176 32.6382 26.3176Z" fill="white"/>
</svg>
