<svg width="36" height="61" viewBox="0 0 36 61" fill="none" xmlns="http://www.w3.org/2000/svg">
<path d="M34.2426 27.9578C34.2426 27.6848 34.4239 27.4126 34.6969 27.4126C34.9745 27.4126 35.2474 27.6856 35.2474 27.9578V56.7361C35.2474 57.7363 34.7925 58.7388 34.0614 59.4683C33.3342 60.1978 32.4197 60.652 31.3293 60.652H3.91434C2.91417 60.652 1.91398 60.1978 1.18679 59.4683C0.454976 58.7388 0 57.7363 0 56.7361V3.91587C0 2.82239 0.454205 1.8199 1.18679 1.18139C1.91398 0.454202 2.91417 0 3.91434 0H31.3293C32.4197 0 33.3342 0.454202 34.0614 1.18139H34.1517C34.7925 1.91089 35.2474 2.82239 35.2474 3.91587V8.653C35.2474 8.92598 34.9752 9.1982 34.6969 9.1982C34.4239 9.1982 34.2426 8.92521 34.2426 8.653V3.91587C34.2426 3.09537 33.8787 2.45917 33.4245 1.91089L33.3342 1.8199C32.7836 1.3657 32.0572 1.00017 31.3293 1.00017H3.91434C3.18715 1.00017 2.4592 1.36647 1.914 1.8199C1.36803 2.36818 1.00481 3.09537 1.00481 3.91587V56.7361C1.00481 57.4633 1.3688 58.1936 1.914 58.7388C2.4592 59.2863 3.18638 59.5593 3.91434 59.5593H31.3293C32.0565 59.5593 32.7836 59.2863 33.3342 58.7388C33.8794 58.1936 34.2434 57.4641 34.2434 56.7361V27.9578H34.2426Z" fill="white"/>
<path d="M15.028 3.00439H20.2194C20.7646 3.00439 21.1286 3.36838 21.2188 3.91589C21.3098 4.09788 21.3098 4.27987 21.3098 4.46109C21.3098 4.55209 21.3098 4.73638 21.2188 4.91837C21.1286 5.46357 20.7646 5.91855 20.2194 5.91855H15.028C14.4828 5.91855 14.1142 5.46357 14.0232 4.91837C14.0232 4.73638 13.9323 4.55209 13.9323 4.46109C13.9323 4.27987 14.0232 4.09788 14.0232 3.91589C14.1142 3.36838 14.4828 3.00439 15.028 3.00439ZM20.2194 4.00688H15.028C15.028 4.00688 15.028 4.09788 15.028 4.1881C15.028 4.2791 15.028 4.3701 15.028 4.46109C15.028 4.55209 15.028 4.64308 15.028 4.73639C15.028 4.82738 15.028 4.82738 15.028 4.82738H20.2194C20.2194 4.82738 20.2194 4.82738 20.2194 4.73639C20.2194 4.64308 20.3096 4.55209 20.3096 4.46109C20.3096 4.37087 20.2194 4.27987 20.2194 4.1881C20.2194 4.09788 20.2194 4.00688 20.2194 4.00688Z" fill="white"/>
<path d="M17.6692 52.4563C17.033 52.4563 16.5742 52.7293 16.2102 53.0925C15.847 53.4565 15.574 53.913 15.574 54.4582C15.574 55.0967 15.847 55.5517 16.2102 55.918C16.5742 56.2812 17.033 56.5542 17.6692 56.5542C18.2144 56.5542 18.6694 56.2812 19.0334 55.918C19.4012 55.5517 19.6742 55.0975 19.6742 54.4582C19.6742 53.913 19.4012 53.4557 19.0334 53.0925C18.6686 52.7293 18.2144 52.4563 17.6692 52.4563ZM15.483 52.3653C16.0282 51.8178 16.7601 51.4539 17.6692 51.4539C18.4874 51.4539 19.2154 51.8178 19.7652 52.3653C20.3104 52.9113 20.6744 53.6377 20.6744 54.4582C20.6744 55.3697 20.3104 56.0992 19.7652 56.6444C19.2154 57.1904 18.4882 57.5536 17.6692 57.5536C16.7601 57.5536 16.0282 57.1896 15.483 56.6444C14.9371 56.0985 14.5739 55.369 14.5739 54.4582C14.5731 53.6385 14.9371 52.9113 15.483 52.3653Z" fill="white"/>
<path d="M4.19119 9.10645V48.1741H31.0563V9.10645H4.19119ZM3.1864 48.7224V8.65302C3.1864 8.37772 3.45939 8.10474 3.7316 8.10474H31.5097C31.7835 8.10474 32.0557 8.37772 32.0557 8.65302V48.7224C32.0557 48.9954 31.7835 49.1789 31.5097 49.1789H3.7316C3.45939 49.1789 3.1864 48.9946 3.1864 48.7224Z" fill="white"/>
<path d="M13.5691 36.61H27.597V24.8594L20.5827 20.7638L13.5691 24.8594V36.61ZM28.0512 37.6125H13.0232C12.7502 37.6125 12.569 37.4282 12.569 37.156V24.5871C12.569 24.4052 12.66 24.2232 12.842 24.1329L20.3105 19.7621C20.4925 19.6711 20.6745 19.6711 20.8557 19.7621L28.325 24.1329C28.4152 24.2239 28.5972 24.3142 28.5972 24.5871V37.156C28.5964 37.4282 28.3242 37.6125 28.0512 37.6125Z" fill="white"/>
<path d="M10.6549 36.61H12.5689V24.5871C12.5689 24.4052 12.6599 24.2232 12.8419 24.1329L18.1242 21.0368L17.6693 20.7638L10.6549 24.8594V36.61ZM13.0231 37.6125H10.1097C9.83752 37.6125 9.65552 37.4282 9.65552 37.156V24.5871C9.65552 24.4052 9.74653 24.2232 9.83753 24.1329L17.397 19.7621C17.488 19.6711 17.761 19.6711 17.8513 19.7621L19.3056 20.5826C19.4012 20.6736 19.4922 20.7646 19.5825 20.7646C19.6735 21.0376 19.5825 21.3105 19.3056 21.4918L13.5691 24.8601V37.156C13.5691 37.4282 13.3871 37.6125 13.0231 37.6125Z" fill="white"/>
<path d="M7.74154 36.61H9.65552V24.5871C9.65552 24.4052 9.74651 24.2232 9.9285 24.1329L15.1199 21.0368L14.6649 20.7638L7.74154 24.8594V36.61ZM10.1097 37.6125H7.19634C6.92336 37.6125 6.65039 37.4282 6.65039 37.156V24.5871C6.65039 24.4052 6.74137 24.2232 6.92335 24.1329L14.3919 19.7621C14.5739 19.6711 14.7559 19.6711 14.9371 19.7621L16.3915 20.5826C16.4825 20.6736 16.5735 20.7646 16.5735 20.7646C16.7601 21.0376 16.6691 21.3105 16.3915 21.4918L10.6542 24.8601V37.156C10.6549 37.4282 10.3819 37.6125 10.1097 37.6125Z" fill="white"/>
<path d="M18.5776 31.2375H22.4966C22.8598 31.2375 23.0418 31.4195 23.0418 31.6925V37.0659C23.0418 37.3388 22.8598 37.6134 22.4966 37.6134H18.5776C18.3046 37.6134 18.1234 37.3388 18.1234 37.0659V31.6925C18.1234 31.4195 18.3054 31.2375 18.5776 31.2375ZM22.0377 32.2393H19.1244V36.5191H22.0377V32.2393Z" fill="white"/>
</svg>
