<svg width="200" height="50" viewBox="0 0 200 50" fill="none" xmlns="http://www.w3.org/2000/svg">
<path d="M64.8617 29.8724V11.8303C64.8617 11.4577 64.7459 11.1333 64.5142 10.859C64.2825 10.5847 64.0015 10.4475 63.6708 10.4475V9.62329H68.9627V10.4475C68.6319 10.4475 68.3509 10.5847 68.1188 10.8581C67.8875 11.1319 67.7722 11.455 67.7722 11.8272V19.384L76.9998 11.4365C77.1319 11.3088 77.198 11.1816 77.198 11.0539C77.198 10.905 77.1206 10.767 76.9668 10.6393C76.812 10.5116 76.636 10.4475 76.4378 10.4475V9.62329H82.3578V10.4475C82.0478 10.4475 81.793 10.4841 81.5935 10.5572C81.3939 10.6303 81.0731 10.8545 80.6301 11.2303L74.2491 16.7696L82.0605 29.7709C82.3691 30.2329 82.6007 30.541 82.755 30.6944C83.1075 31.0684 83.427 31.2552 83.7139 31.2552V32.0794H78.2238V31.2552C78.7528 31.2552 79.0175 30.9818 79.0175 30.4336C79.0175 30.2144 78.9595 30.0064 78.8442 29.8092L72.1649 18.5633L67.7726 22.3029V29.8729C67.7726 30.2455 67.888 30.5699 68.1192 30.8442C68.3509 31.118 68.6319 31.2552 68.9631 31.2552V32.0794H63.6712V31.2552C64.0016 31.2552 64.283 31.118 64.5147 30.8442C64.7463 30.5703 64.8617 30.2455 64.8617 29.8724Z" fill="white"/>
<path d="M89.4021 29.8726V11.8306C89.4021 11.4579 89.2863 11.1335 89.0546 10.8592C88.8229 10.5849 88.542 10.4478 88.2112 10.4478V9.62354H93.5031V10.4478C93.1723 10.4478 92.8913 10.5854 92.6592 10.8592C92.4279 11.1331 92.3126 11.457 92.3126 11.8301V29.9696H102.201C102.928 29.9696 103.552 29.7499 104.07 29.3096C104.588 28.8702 104.847 28.3536 104.847 27.7599H105.674V32.0797H88.2112V31.2554C88.5415 31.2554 88.8229 31.1183 89.0546 30.8444C89.2863 30.5706 89.4021 30.2457 89.4021 29.8726Z" fill="white"/>
<path d="M110.239 9.6228H128.065V13.7121H127.239C127.239 13.1626 127.024 12.6843 126.594 12.2774C126.164 11.8704 125.662 11.6674 125.089 11.6674H114.34V18.6914H122.377C122.729 18.6914 123.082 18.5263 123.436 18.197C123.788 17.8672 123.965 17.5261 123.965 17.1747H124.791V22.187H123.965C123.965 21.725 123.805 21.3573 123.485 21.0825C123.165 20.8078 122.796 20.6702 122.377 20.6702H114.34V29.9698H125.718C126.445 29.9698 127.068 29.7501 127.586 29.3098C128.104 28.8704 128.363 28.3538 128.363 27.7601H129.19V32.0799H110.239V31.2556C110.57 31.2556 110.851 31.1185 111.083 30.8446C111.314 30.5708 111.43 30.2464 111.43 29.8728V11.8307C111.43 11.4581 111.314 11.1337 111.083 10.8594C110.852 10.5856 110.57 10.448 110.239 10.448V9.6228H110.239Z" fill="white"/>
<path d="M132.993 9.62277H138.318V10.447C137.612 10.447 137.259 10.7254 137.259 11.2812C137.259 11.431 137.296 11.602 137.37 11.7946L143.153 27.8408L149.105 11.8009C149.167 11.6078 149.199 11.4355 149.199 11.2853C149.199 11.0056 149.104 10.7958 148.917 10.6564C148.73 10.5165 148.493 10.4466 148.207 10.4466V9.62231H152.606V10.4466C152.164 10.4466 151.789 10.8973 151.481 11.7987L143.641 32.0785L141.658 32.0789L134.349 11.7987C134.15 11.2839 133.963 10.9298 133.787 10.7367C133.61 10.5436 133.345 10.4466 132.993 10.4466V9.62277Z" fill="white"/>
<path d="M157.136 9.6228H174.963V13.7121H174.137C174.137 13.1626 173.922 12.6843 173.491 12.2774C173.061 11.8704 172.559 11.6674 171.986 11.6674H161.238V18.6914H169.275C169.627 18.6914 169.98 18.5263 170.333 18.197C170.686 17.8672 170.862 17.5261 170.862 17.1747H171.689V22.187H170.862C170.862 21.725 170.702 21.3573 170.383 21.0825C170.062 20.8078 169.693 20.6702 169.275 20.6702H161.238V29.9698H172.615C173.342 29.9698 173.966 29.7501 174.484 29.3098C175.002 28.8704 175.261 28.3538 175.261 27.7601H176.088V32.0799H157.137V31.2556C157.467 31.2556 157.749 31.1185 157.98 30.8446C158.212 30.5708 158.328 30.2464 158.328 29.8728V11.8307C158.328 11.4581 158.212 11.1337 157.98 10.8594C157.749 10.5851 157.468 10.448 157.137 10.448V9.6228H157.136Z" fill="white"/>
<path d="M181.015 9.6228H192.359C194.057 9.6228 195.584 10.2093 196.94 11.3814C198.296 12.5539 198.974 13.9733 198.974 15.6385C198.974 17.5451 198.149 19.1011 196.496 20.3066C194.977 21.4024 193.192 21.9497 191.144 21.9497L198.22 30.2283C198.572 30.6483 198.863 30.924 199.094 31.0566C199.324 31.1893 199.627 31.2551 200 31.2551V32.0794L196.064 32.0799L187.928 21.956H185.117V29.8701C185.117 30.2446 185.232 30.568 185.463 30.8432C185.695 31.118 185.976 31.2551 186.307 31.2551V32.0794H181.015V31.2551C181.346 31.2551 181.627 31.118 181.859 30.8441C182.09 30.5703 182.206 30.2459 182.206 29.8724V11.8303C182.206 11.4576 182.091 11.1333 181.859 10.859C181.628 10.5851 181.346 10.4475 181.015 10.4475V9.6228ZM191.169 19.9772C192.426 19.9772 193.534 19.545 194.493 18.6802C195.452 17.8153 195.932 16.857 195.932 15.8059C195.932 14.5792 195.568 13.5835 194.84 12.8165C194.113 12.0505 193.131 11.6674 191.897 11.6674H185.117V19.9772H191.169Z" fill="white"/>
<path d="M65.5011 40.9212C65.5011 40.6681 65.4174 40.4647 65.2499 40.3104C65.0825 40.1556 64.8536 40.0789 64.5622 40.0789C64.2898 40.0789 64.0251 40.1344 63.768 40.2454C63.511 40.3569 63.3481 40.5084 63.2803 40.6993H63.0481V40.023C63.2649 39.8813 63.5314 39.7717 63.8472 39.6946C64.1631 39.6174 64.4635 39.5786 64.7486 39.5786C65.2441 39.5786 65.6219 39.6901 65.8821 39.9125C66.1237 40.1159 66.2445 40.3911 66.2445 40.7367V43.4229C66.2445 43.528 66.2771 43.6191 66.3423 43.6963C66.4074 43.773 66.4862 43.8118 66.5794 43.8118V44.0432H65.5015V43.5984C65.3282 43.8086 65.1174 43.9616 64.8694 44.0568C64.6214 44.1524 64.3617 44.2002 64.0893 44.2002C63.6988 44.2002 63.3735 44.0834 63.1133 43.8492C62.8346 43.5966 62.6952 43.2578 62.6952 42.8328C62.6952 42.2111 63.0232 41.7338 63.6803 41.4013C64.126 41.1802 64.7332 41.02 65.5011 40.9212ZM65.5011 42.9347V41.3665C64.9563 41.4216 64.488 41.5772 64.0979 41.8321C63.7079 42.0875 63.5128 42.3965 63.5128 42.7597C63.5128 43.0484 63.5857 43.2718 63.7309 43.4283C63.8766 43.5853 64.0608 43.6638 64.2839 43.6638C64.507 43.6638 64.7346 43.5916 64.9667 43.4472C65.1988 43.3029 65.3771 43.1314 65.5011 42.9347Z" fill="white"/>
<path d="M69.9975 43.4227V40.3657C69.9975 40.261 69.9654 40.1694 69.8997 40.0923C69.8346 40.0156 69.7558 39.9768 69.6631 39.9768V39.7454H72.8681V40.894H72.636C72.636 40.7334 72.588 40.5917 72.4921 40.4677C72.3957 40.3445 72.2645 40.2827 72.097 40.2827H70.7405V43.4227C70.7405 43.5278 70.773 43.619 70.8382 43.6961C70.9034 43.7728 70.9821 43.8116 71.0753 43.8116V44.043H69.6631V43.8116C69.7558 43.8116 69.8346 43.7728 69.8997 43.6961C69.9654 43.6185 69.9975 43.5278 69.9975 43.4227Z" fill="white"/>
<path d="M79.5396 43.1267H79.874V43.7881C79.6572 43.9167 79.4124 44.0177 79.14 44.0913C78.8676 44.1643 78.5979 44.2013 78.3319 44.2013C77.6631 44.2013 77.0993 44.0042 76.6409 43.6094C76.1396 43.1781 75.8884 42.6146 75.8884 41.9176C75.8884 41.2887 76.0712 40.7622 76.4368 40.3368C76.8703 39.8315 77.4835 39.5784 78.2762 39.5784C78.6726 39.5784 79.0287 39.6993 79.3446 39.9397C79.7038 40.2118 79.9577 40.6038 80.1065 41.1164L76.8269 42.3115C76.9382 42.7346 77.1423 43.0658 77.4396 43.3049C77.7373 43.5445 78.0717 43.6636 78.4432 43.6636C78.7464 43.6636 78.9853 43.6225 79.159 43.5404C79.3323 43.4592 79.459 43.3207 79.5396 43.1267ZM79.2871 40.981C79.1753 40.662 79.007 40.432 78.7835 40.2907C78.5599 40.1495 78.2925 40.0791 77.9821 40.0791C77.6654 40.0791 77.3794 40.2149 77.1246 40.4856C76.845 40.7816 76.7052 41.1425 76.7052 41.5675L76.7319 41.863L79.2871 40.981Z" fill="white"/>
<path d="M84.3057 41.3939H86.5355V40.3657C86.5355 40.261 86.5029 40.1694 86.4378 40.0923C86.3726 40.0156 86.2939 39.9768 86.2007 39.9768V39.7454H87.2785V43.4232C87.2785 43.5283 87.3106 43.6194 87.3763 43.6966C87.4414 43.7733 87.5201 43.8121 87.6129 43.8121V44.0435H86.2007V43.8121C86.2939 43.8121 86.3726 43.7733 86.4378 43.6966C86.5029 43.6194 86.5355 43.5283 86.5355 43.4232V41.9506H84.3057V43.4232C84.3057 43.5283 84.3382 43.6194 84.4034 43.6966C84.4685 43.7733 84.5473 43.8121 84.6405 43.8121V44.0435H83.2283V43.8121C83.321 43.8121 83.3998 43.7733 83.4649 43.6966C83.5305 43.6194 83.5627 43.5283 83.5627 43.4232V40.3662C83.5627 40.2615 83.5305 40.1699 83.4649 40.0928C83.3998 40.0161 83.321 39.9773 83.2283 39.9773V39.7458H84.3057V41.3939Z" fill="white"/>
<path d="M94.1636 43.2095H94.3957V43.9715C94.2283 44.0202 94.0505 44.0707 93.8613 44.1231C93.6722 44.175 93.4939 44.2011 93.327 44.2011C92.6328 44.2011 92.0401 43.9498 91.5473 43.4477C91.055 42.9456 90.8088 42.337 90.8088 41.6219C90.8088 40.9934 91.0256 40.4958 91.4591 40.129C91.893 39.7622 92.4378 39.5786 93.0948 39.5786C93.417 39.5786 93.6754 39.6021 93.8708 39.6481C94.0659 39.6946 94.2405 39.764 94.3957 39.857V40.7367H94.1636C94.0582 40.5513 93.9093 40.3956 93.7179 40.2689C93.5256 40.1426 93.3274 40.0794 93.1229 40.0794C92.7392 40.0794 92.4107 40.2026 92.1378 40.4489C91.8224 40.7322 91.6645 41.136 91.6645 41.6593C91.6645 42.1894 91.8333 42.6586 92.1708 43.0683C92.5084 43.4779 92.9188 43.6832 93.4021 43.6832C93.5817 43.6832 93.7328 43.6394 93.8573 43.5515C93.9808 43.4626 94.0831 43.3489 94.1636 43.2095Z" fill="white"/>
<path d="M101.532 39.7451V40.8847H101.299C101.299 40.7368 101.248 40.6023 101.146 40.4814C101.044 40.3609 100.913 40.3009 100.751 40.3009H99.8967V43.4225C99.8967 43.5276 99.9293 43.6187 99.9944 43.6959C100.06 43.7726 100.138 43.8114 100.232 43.8114V44.0428H98.8188V43.8114C98.9121 43.8114 98.9908 43.7726 99.0559 43.6959C99.1211 43.6187 99.1537 43.5276 99.1537 43.4225V40.3009H98.2989C98.1501 40.3009 98.0215 40.3609 97.9134 40.4814C97.8048 40.6023 97.751 40.7363 97.751 40.8847H97.5193V39.7451H101.532Z" fill="white"/>
<path d="M104.876 43.4227V40.3657C104.876 40.261 104.844 40.1694 104.778 40.0923C104.713 40.0156 104.634 39.9768 104.542 39.9768V39.7454H107.04C107.307 39.7454 107.556 39.846 107.789 40.0463C108.02 40.247 108.137 40.4835 108.137 40.755C108.137 40.94 108.08 41.1083 107.965 41.2599C107.851 41.4115 107.685 41.5396 107.468 41.6443C107.778 41.7616 108.019 41.9222 108.193 42.1256C108.366 42.3296 108.453 42.5673 108.453 42.8394C108.453 43.1913 108.301 43.485 107.998 43.7191C107.718 43.9352 107.394 44.0435 107.022 44.0435H104.542V43.8121C104.634 43.8121 104.713 43.7733 104.778 43.6966C104.844 43.6185 104.876 43.5278 104.876 43.4227ZM105.619 40.2822V41.4218H106.687C106.88 41.4218 107.042 41.3645 107.175 41.2504C107.308 41.1363 107.375 40.9806 107.375 40.7826C107.375 40.5791 107.306 40.4447 107.17 40.3797C107.034 40.3147 106.845 40.2822 106.603 40.2822H105.619ZM105.619 41.9217V43.5612H106.687C106.923 43.5612 107.139 43.4782 107.338 43.3113C107.536 43.1444 107.635 42.9409 107.635 42.7C107.635 42.4717 107.539 42.2849 107.347 42.1392C107.155 41.9944 106.935 41.9217 106.687 41.9217H105.619Z" fill="white"/>
<path d="M113.795 44.2011C113.157 44.2011 112.631 44.0067 112.216 43.6187C111.77 43.1996 111.547 42.6356 111.547 41.9269C111.547 41.1752 111.764 40.5892 112.197 40.1705C112.606 39.7762 113.139 39.5786 113.795 39.5786C114.452 39.5786 114.985 39.7762 115.394 40.1705C115.833 40.5955 116.053 41.1816 116.053 41.9269C116.053 42.6419 115.837 43.2059 115.403 43.6187C114.994 44.0067 114.458 44.2011 113.795 44.2011ZM113.804 43.6638C114.195 43.6638 114.531 43.496 114.813 43.1603C115.095 42.8242 115.235 42.4132 115.235 41.9269C115.235 41.4649 115.118 41.0647 114.882 40.7259C114.616 40.3442 114.254 40.1529 113.795 40.1529C113.355 40.1529 112.999 40.3442 112.727 40.7259C112.485 41.0647 112.364 41.4649 112.364 41.9269C112.364 42.4073 112.507 42.817 112.792 43.1558C113.077 43.4946 113.414 43.6638 113.804 43.6638Z" fill="white"/>
<path d="M125.047 41.3939H127.277V40.3657C127.277 40.261 127.244 40.1694 127.179 40.0923C127.114 40.0156 127.035 39.9768 126.942 39.9768V39.7454H128.019V43.4232C128.019 43.5283 128.052 43.6194 128.117 43.6966C128.182 43.7733 128.261 43.8121 128.354 43.8121V44.0435H126.942V43.8121C127.035 43.8121 127.114 43.7733 127.179 43.6966C127.244 43.6194 127.277 43.5283 127.277 43.4232V41.9506H125.047V43.4232C125.047 43.5283 125.079 43.6194 125.144 43.6966C125.21 43.7733 125.288 43.8121 125.381 43.8121V44.0435H123.969V43.8121C124.062 43.8121 124.141 43.7733 124.206 43.6966C124.272 43.6194 124.304 43.5283 124.304 43.4232V40.3662C124.304 40.2615 124.272 40.1699 124.206 40.0928C124.141 40.0161 124.062 39.9773 123.969 39.9773V39.7458H125.047V41.3939Z" fill="white"/>
<path d="M135.202 43.1267H135.537V43.7881C135.32 43.9167 135.075 44.0177 134.803 44.0913C134.53 44.1643 134.261 44.2013 133.995 44.2013C133.326 44.2013 132.762 44.0042 132.304 43.6094C131.802 43.1781 131.551 42.6146 131.551 41.9176C131.551 41.2887 131.734 40.7622 132.1 40.3368C132.533 39.8315 133.146 39.5784 133.939 39.5784C134.335 39.5784 134.691 39.6993 135.007 39.9397C135.367 40.2118 135.62 40.6038 135.769 41.1164L132.49 42.3115C132.601 42.7346 132.805 43.0658 133.102 43.3049C133.4 43.5445 133.734 43.6636 134.106 43.6636C134.409 43.6636 134.648 43.6225 134.822 43.5404C134.995 43.4592 135.121 43.3207 135.202 43.1267ZM134.949 40.981C134.838 40.662 134.669 40.432 134.446 40.2907C134.222 40.1495 133.955 40.0791 133.644 40.0791C133.328 40.0791 133.042 40.2149 132.787 40.4856C132.507 40.7816 132.367 41.1425 132.367 41.5675L132.394 41.863L134.949 40.981Z" fill="white"/>
<path d="M139.968 44.2011V45.4404C139.968 45.5456 140.001 45.6376 140.066 45.7152C140.131 45.7923 140.21 45.8311 140.303 45.8311V46.0626H138.891V45.8311C138.983 45.8311 139.062 45.7923 139.127 45.7156C139.193 45.6385 139.225 45.5474 139.225 45.4422V40.3659C139.225 40.2612 139.193 40.1696 139.127 40.0925C139.062 40.0158 138.983 39.977 138.891 39.977V39.7455H139.968V40.2454C140.185 40.0419 140.445 39.8795 140.749 39.7595C141.052 39.6386 141.34 39.5786 141.613 39.5786C142.133 39.5786 142.574 39.7591 142.937 40.1195C143.299 40.4805 143.48 40.9533 143.48 41.5389C143.48 42.4696 143.109 43.1657 142.365 43.6282C141.752 44.0098 140.953 44.2011 139.968 44.2011ZM139.968 40.7345V43.6083C140.972 43.6083 141.69 43.4143 142.124 43.0263C142.482 42.706 142.663 42.2503 142.663 41.6589C142.663 41.2154 142.538 40.8536 142.291 40.5734C142.043 40.2928 141.718 40.1529 141.315 40.1529C141.092 40.1529 140.863 40.2003 140.628 40.2959C140.392 40.3916 140.173 40.5378 139.968 40.7345Z" fill="white"/>
<path d="M146.397 39.7448H147.745V39.9763C147.645 39.9763 147.596 40.0376 147.596 40.1603C147.596 40.2037 147.607 40.2528 147.628 40.3079L148.741 43.1294L149.845 40.3097C149.857 40.2849 149.863 40.2479 149.863 40.1982C149.863 40.0503 149.783 39.9758 149.621 39.9758V39.7444H150.82V39.9758C150.771 39.9758 150.723 39.9993 150.677 40.0453C150.631 40.0913 150.582 40.1802 150.533 40.3097L148.688 45.1005C148.545 45.4641 148.316 45.7479 147.999 45.9514C147.707 46.1363 147.385 46.2288 147.031 46.2288C146.832 46.2288 146.652 46.1855 146.491 46.0993V45.2656H146.723C146.741 45.3892 146.788 45.4812 146.863 45.5435C146.937 45.6049 147.03 45.6364 147.141 45.6364C147.296 45.6364 147.447 45.604 147.592 45.539C147.737 45.474 147.845 45.377 147.913 45.2471L148.359 44.1075L146.807 40.3097C146.72 40.0873 146.584 39.9758 146.398 39.9758V39.7448H146.397Z" fill="white"/>
<path d="M153.626 44.0435V43.8121C153.664 43.7999 153.705 43.7674 153.751 43.7146C153.798 43.6623 153.846 43.5992 153.895 43.5252L155.162 41.7977L154.035 40.2642C153.96 40.1654 153.893 40.0928 153.835 40.0468C153.776 40.0007 153.706 39.9773 153.625 39.9773V39.7458H155.159V39.9773C155.102 39.9773 155.053 39.9958 155.01 40.0332C154.966 40.0707 154.945 40.1171 154.945 40.1731C154.945 40.1979 154.956 40.2286 154.979 40.266L155.722 41.2924L156.439 40.2638C156.451 40.2516 156.461 40.2345 156.467 40.2128C156.473 40.1911 156.477 40.174 156.477 40.1618C156.477 40.1126 156.455 40.0693 156.412 40.0328C156.368 39.9958 156.316 39.9773 156.254 39.9773V39.7458H157.62V39.9773C157.533 39.9773 157.462 39.9971 157.406 40.0373C157.35 40.0779 157.279 40.1532 157.192 40.2642L156.078 41.7454L157.401 43.5288C157.47 43.6199 157.539 43.6903 157.608 43.739C157.677 43.7877 157.734 43.8121 157.778 43.8121V44.0435H156.254V43.8121C156.284 43.8121 156.319 43.7999 156.356 43.7751C156.417 43.7318 156.449 43.6731 156.449 43.5992C156.449 43.5685 156.443 43.5437 156.43 43.5252L155.512 42.2922L154.654 43.5243C154.63 43.5549 154.607 43.5897 154.585 43.6262C154.564 43.6637 154.554 43.6975 154.554 43.7286C154.554 43.7841 154.587 43.8121 154.655 43.8121V44.0435H153.626Z" fill="white"/>
<path d="M163.047 44.2011C162.409 44.2011 161.883 44.0067 161.467 43.6187C161.021 43.1996 160.798 42.6356 160.798 41.9269C160.798 41.1752 161.015 40.5892 161.449 40.1705C161.858 39.7762 162.391 39.5786 163.047 39.5786C163.703 39.5786 164.236 39.7762 164.645 40.1705C165.085 40.5955 165.305 41.1816 165.305 41.9269C165.305 42.6419 165.088 43.2059 164.654 43.6187C164.245 44.0067 163.71 44.2011 163.047 44.2011ZM163.056 43.6638C163.447 43.6638 163.783 43.496 164.064 43.1603C164.346 42.8242 164.487 42.4132 164.487 41.9269C164.487 41.4649 164.369 41.0647 164.134 40.7259C163.868 40.3442 163.506 40.1529 163.047 40.1529C162.607 40.1529 162.251 40.3442 161.978 40.7259C161.737 41.0647 161.616 41.4649 161.616 41.9269C161.616 42.4073 161.759 42.817 162.044 43.1558C162.329 43.4946 162.666 43.6638 163.056 43.6638Z" fill="white"/>
<path d="M174.169 44.0434H172.812V43.812C172.88 43.812 172.931 43.7921 172.965 43.752C172.999 43.7118 173.017 43.6613 173.017 43.599C173.017 43.5562 173.007 43.5061 172.988 43.4511L172.152 40.6738L171.131 43.4511H170.833L169.841 40.6751L169.218 43.4511C169.193 43.5499 169.219 43.6351 169.297 43.706C169.374 43.7768 169.468 43.8124 169.579 43.8124V44.0439H168.334V43.8124C168.39 43.8124 168.458 43.789 168.538 43.743C168.618 43.6969 168.665 43.6455 168.678 43.59L169.468 40.3196C169.493 40.2028 169.465 40.1161 169.384 40.0606C169.303 40.0052 169.195 39.9772 169.059 39.9772V39.7457L170.327 39.7444L171.127 41.9826L171.969 39.7462H173.268V39.9776C172.977 39.9776 172.832 40.067 172.832 40.2461C172.832 40.2772 172.834 40.302 172.841 40.3201L173.826 43.5535C173.851 43.6338 173.898 43.6969 173.97 43.743C174.041 43.789 174.108 43.8124 174.17 43.8124V44.0434H174.169Z" fill="white"/>
<path d="M179.39 44.2011C178.752 44.2011 178.226 44.0067 177.81 43.6187C177.364 43.1996 177.141 42.6356 177.141 41.9269C177.141 41.1752 177.358 40.5892 177.792 40.1705C178.201 39.7762 178.734 39.5786 179.39 39.5786C180.046 39.5786 180.58 39.7762 180.988 40.1705C181.428 40.5955 181.648 41.1816 181.648 41.9269C181.648 42.6419 181.431 43.2059 180.998 43.6187C180.588 44.0067 180.052 44.2011 179.39 44.2011ZM179.399 43.6638C179.789 43.6638 180.125 43.496 180.407 43.1603C180.689 42.8242 180.83 42.4132 180.83 41.9269C180.83 41.4649 180.712 41.0647 180.477 40.7259C180.21 40.3442 179.848 40.1529 179.389 40.1529C178.95 40.1529 178.594 40.3442 178.321 40.7259C178.08 41.0647 177.959 41.4649 177.959 41.9269C177.959 42.4073 178.101 42.817 178.386 43.1558C178.671 43.4946 179.009 43.6638 179.399 43.6638Z" fill="white"/>
<path d="M188.114 43.2095H188.347V43.9715C188.179 44.0202 188.001 44.0707 187.812 44.1231C187.623 44.175 187.445 44.2011 187.278 44.2011C186.584 44.2011 185.991 43.9498 185.498 43.4477C185.006 42.9456 184.76 42.337 184.76 41.6219C184.76 40.9934 184.976 40.4958 185.41 40.129C185.844 39.7622 186.389 39.5786 187.046 39.5786C187.368 39.5786 187.626 39.6021 187.822 39.6481C188.017 39.6946 188.191 39.764 188.347 39.857V40.7367H188.114C188.009 40.5513 187.86 40.3956 187.669 40.2689C187.476 40.1426 187.278 40.0794 187.074 40.0794C186.69 40.0794 186.361 40.2026 186.089 40.4489C185.773 40.7322 185.615 41.136 185.615 41.6593C185.615 42.1894 185.784 42.6586 186.122 43.0683C186.459 43.4779 186.87 43.6832 187.353 43.6832C187.533 43.6832 187.684 43.6394 187.808 43.5515C187.932 43.4626 188.033 43.3489 188.114 43.2095Z" fill="white"/>
<path d="M195.482 39.7451V40.8847H195.25C195.25 40.7368 195.199 40.6023 195.096 40.4814C194.995 40.3609 194.862 40.3009 194.702 40.3009H193.847V43.4225C193.847 43.5276 193.88 43.6187 193.945 43.6959C194.01 43.7726 194.089 43.8114 194.182 43.8114V44.0428H192.769V43.8114C192.862 43.8114 192.941 43.7726 193.006 43.6959C193.071 43.6187 193.104 43.5276 193.104 43.4225V40.3009H192.249C192.101 40.3009 191.972 40.3609 191.864 40.4814C191.755 40.6023 191.701 40.7363 191.701 40.8847H191.47V39.7451H195.482Z" fill="white"/>
<path d="M198.493 39.7451H199.57V43.4229C199.57 43.528 199.603 43.6191 199.668 43.6963C199.733 43.773 199.812 43.8117 199.905 43.8117V44.0432H198.493V43.8117C198.585 43.8117 198.664 43.773 198.729 43.6963C198.795 43.6191 198.827 43.528 198.827 43.4229V40.3658C198.827 40.2612 198.795 40.1696 198.729 40.0924C198.664 40.0157 198.585 39.9769 198.493 39.9769V39.7451ZM199.199 38.9488C199.353 38.9488 199.484 38.896 199.589 38.7913C199.694 38.6866 199.747 38.5536 199.747 38.3929C199.747 38.2445 199.694 38.115 199.589 38.0036C199.484 37.8926 199.353 37.8367 199.199 37.8367C199.044 37.8367 198.914 37.8895 198.808 37.9941C198.703 38.0992 198.65 38.2323 198.65 38.3925C198.65 38.5405 198.703 38.6704 198.808 38.7818C198.913 38.8928 199.044 38.9488 199.199 38.9488Z" fill="white"/>
<path d="M25.9081 20.8467C25.3076 21.6014 24.2076 21.7278 23.451 21.1291L13.2872 13.0909C12.5311 12.4927 12.4035 11.3955 13.0035 10.6407L20.9447 0.659818C21.5447 -0.0940587 22.6456 -0.220832 23.4022 0.377397L33.5656 8.41604C34.3221 9.01427 34.4488 10.1119 33.8488 10.8658L30.0031 15.6999C29.8678 15.8695 29.6212 15.8975 29.452 15.7635C29.2827 15.6295 29.2538 15.3837 29.3886 15.214L31.1959 12.942L29.4013 11.5227C29.2325 11.3891 29.2035 11.1428 29.3379 10.9736C29.4723 10.8044 29.7203 10.776 29.8891 10.91L31.6837 12.3293L33.2348 10.3795C33.5651 9.9644 33.4954 9.3576 33.0782 9.02826L30.1008 6.67369L27.8497 9.50332C27.7153 9.6725 27.4682 9.70093 27.299 9.56648C27.1293 9.43249 27.1008 9.18616 27.2357 9.01743L29.4868 6.1878L25.0311 2.66384L22.7135 5.57694C22.5791 5.74612 22.3325 5.77409 22.1623 5.63965C21.9936 5.50611 21.9646 5.25978 22.099 5.09059L24.4171 2.17705L22.9148 0.989612C22.4985 0.660271 21.8899 0.730196 21.5596 1.14526L17.2062 6.6173L19.4637 8.40296L20.1691 7.51644C20.303 7.34771 20.5506 7.31929 20.7198 7.45328C20.8895 7.58727 20.9175 7.83406 20.784 8.00279L20.0786 8.8893L24.5343 12.4133L24.7492 12.143C24.8832 11.9743 25.1302 11.9459 25.2999 12.0799C25.4696 12.2138 25.4972 12.4606 25.3633 12.6294L24.4447 13.7839C24.3103 13.953 24.0632 13.981 23.894 13.847C23.7248 13.7126 23.6963 13.4672 23.8307 13.298L24.0465 13.0264L16.7184 7.23087L13.6188 11.1275C13.2881 11.5425 13.3587 12.1493 13.775 12.4782L20.3469 17.6764L21.885 15.7428C22.0193 15.574 22.2664 15.5452 22.4361 15.6796L24.1678 17.0493C24.337 17.1833 24.3655 17.4296 24.2311 17.5988C24.0967 17.7675 23.8497 17.796 23.6804 17.662L22.256 16.5354L20.9614 18.1628L23.9388 20.5178C24.356 20.8476 24.9637 20.7776 25.2945 20.3621L25.9723 19.5103L25.1402 18.8521C24.9709 18.7186 24.942 18.4727 25.0768 18.3031C25.2108 18.1348 25.4587 18.1064 25.6275 18.2399L26.4596 18.8981L26.6112 18.7082C26.7452 18.5395 26.9931 18.511 27.1619 18.645C27.3311 18.779 27.3596 19.0254 27.2253 19.1941L25.9081 20.8467Z" fill="white"/>
<path d="M29.9863 6.03106L24.4425 12.9983L24.5063 13.0488L30.0501 6.08153L29.9863 6.03106Z" fill="white"/>
<path d="M20.6786 1.72959L20.6279 1.79321L28.2121 7.79219L28.2627 7.72857L20.6786 1.72959Z" fill="white"/>
<path d="M32.1304 7.73716L22.5876 19.7302L22.6515 19.7807L32.1942 7.78764L32.1304 7.73716Z" fill="white"/>
<path d="M14.2999 9.74571L14.2493 9.80933L22.3144 16.1888L22.3651 16.1252L14.2999 9.74571Z" fill="white"/>
<path d="M26.5321 3.30893L16.7908 15.5515L16.8546 15.602L26.5959 3.3594L26.5321 3.30893Z" fill="white"/>
<path d="M29.2031 49.3396C28.6026 50.0944 27.5026 50.2207 26.7461 49.622L16.5822 41.5838C15.8261 40.9856 15.6985 39.8884 16.2985 39.1336L24.2397 29.1527C24.8397 28.3989 25.9406 28.2721 26.6972 28.8703L36.8606 36.909C37.6172 37.5072 37.7439 38.6048 37.1439 39.3587L33.2981 44.1928C33.1628 44.3625 32.9162 44.3904 32.747 44.2564C32.5778 44.1225 32.5488 43.8766 32.6837 43.7069L34.4909 41.4349L32.6963 40.0156C32.5276 39.8821 32.4986 39.6357 32.633 39.4666C32.7674 39.2974 33.0153 39.2689 33.1841 39.4029L34.9787 40.8223L36.5298 38.8724C36.8602 38.4573 36.7905 37.8505 36.3733 37.5212L33.3959 35.1666L31.1447 37.9962C31.0104 38.1654 30.7633 38.1938 30.5941 38.0594C30.4244 37.9254 30.3959 37.6791 30.5307 37.5104L32.7819 34.6807L28.3262 31.1568L26.0085 34.0699C25.8741 34.239 25.6275 34.2675 25.4574 34.1326C25.2886 33.999 25.2596 33.7527 25.394 33.5835L27.7121 30.67L26.2099 29.4825C25.7936 29.1532 25.185 29.2231 24.8547 29.6382L20.5012 35.1102L22.7587 36.8959L23.4642 36.0094C23.5981 35.8406 23.8456 35.8122 24.0148 35.9462C24.1845 36.0802 24.2126 36.327 24.0791 36.4957L23.3737 37.3822L27.8293 40.9062L28.0443 40.6359C28.1782 40.4672 28.4253 40.4383 28.595 40.5728C28.7646 40.7068 28.7922 40.9536 28.6583 41.1223L27.7397 42.2768C27.6054 42.446 27.3583 42.4739 27.1891 42.3399C27.0198 42.2055 26.9913 41.9601 27.1257 41.7909L27.3416 41.5193L20.0135 35.7238L16.9139 39.6204C16.5831 40.0355 16.6537 40.6423 17.07 40.9712L23.642 46.1693L25.18 44.2357C25.3144 44.067 25.5615 44.0381 25.7311 44.1725L27.4628 45.5422C27.6321 45.6762 27.6606 45.9226 27.5262 46.0917C27.3913 46.2605 27.1447 46.2889 26.9755 46.1549L25.551 45.0284L24.2565 46.6557L27.2339 49.0107C27.6511 49.3405 28.2588 49.2706 28.5895 48.8551L29.2674 48.0033L28.4352 47.345C28.266 47.2115 28.237 46.9656 28.3719 46.796C28.5058 46.6277 28.7538 46.5993 28.9226 46.7328L29.7547 47.3911L29.9063 47.2011C30.0402 47.0324 30.2882 47.004 30.457 47.138C30.6262 47.272 30.6547 47.5183 30.5203 47.687L29.2031 49.3396Z" fill="white"/>
<path d="M33.2801 34.5247L27.7363 41.4919L27.8001 41.5424L33.3439 34.5752L33.2801 34.5247Z" fill="white"/>
<path d="M23.972 30.2237L23.9214 30.2874L31.5055 36.2863L31.5561 36.2227L23.972 30.2237Z" fill="white"/>
<path d="M35.4239 36.2311L25.8811 48.2241L25.9449 48.2746L35.4877 36.2815L35.4239 36.2311Z" fill="white"/>
<path d="M17.5938 38.2406L17.5432 38.3042L25.6084 44.6837L25.659 44.6201L17.5938 38.2406Z" fill="white"/>
<path d="M29.8255 31.8033L20.0842 44.0459L20.148 44.0964L29.8893 31.8538L29.8255 31.8033Z" fill="white"/>
<path d="M29.2398 25.8323C28.4827 25.2336 28.356 24.1369 28.9565 23.3825L37.0185 13.2487C37.6185 12.4948 38.719 12.3676 39.476 12.9658L49.4865 20.8836C50.2426 21.4818 50.3697 22.5795 49.7697 23.3338L41.7077 33.4672C41.1077 34.2215 40.0068 34.3478 39.2507 33.7496L34.4022 29.9152C34.2321 29.7808 34.204 29.5344 34.3384 29.3657C34.4728 29.197 34.7194 29.1681 34.8896 29.3026L37.1683 31.1045L38.5918 29.3152C38.7258 29.1469 38.9728 29.118 39.1425 29.252C39.3122 29.386 39.3407 29.6333 39.2063 29.8015L37.7828 31.5908L39.7385 33.1374C40.1547 33.4667 40.7633 33.3972 41.0937 32.9813L43.4552 30.0127L40.6172 27.7682C40.4475 27.6342 40.419 27.3879 40.5538 27.2191C40.6882 27.0499 40.9353 27.0215 41.1045 27.156L43.9425 29.4005L47.477 24.9579L44.5552 22.6471C44.3855 22.5132 44.3575 22.2673 44.4923 22.0976C44.6263 21.9294 44.8733 21.9005 45.043 22.0345L47.9652 24.3457L49.1562 22.8479C49.4865 22.4328 49.4163 21.826 49 21.4967L43.5118 17.1562L41.7208 19.407L42.61 20.1103C42.7792 20.2438 42.8077 20.4906 42.6733 20.6594C42.5389 20.8285 42.2914 20.8565 42.1222 20.7234L41.233 20.0201L37.6986 24.4626L37.9697 24.6769C38.1389 24.8104 38.1674 25.0568 38.033 25.2259C37.8986 25.3951 37.6511 25.4226 37.4819 25.2891L36.324 24.3733C36.1543 24.2393 36.1262 23.9929 36.2606 23.8242C36.3955 23.6555 36.6416 23.627 36.8113 23.761L37.0837 23.9762L42.8964 16.6698L38.9882 13.5794C38.5719 13.2496 37.9633 13.32 37.6335 13.7351L32.4199 20.2876L34.3592 21.8211C34.5285 21.9551 34.5574 22.2014 34.4226 22.3706L33.0488 24.0972C32.9144 24.2659 32.6674 24.2943 32.4977 24.1603C32.3285 24.0259 32.3 23.78 32.4343 23.6113L33.5642 22.191L31.9321 20.9003L29.5701 23.8689C29.2393 24.2848 29.3094 24.8907 29.7262 25.2205L30.5805 25.8963L31.2407 25.0667C31.3746 24.8979 31.6212 24.8691 31.7914 25.0035C31.9601 25.1371 31.9886 25.3843 31.8547 25.5526L31.1945 26.3822L31.385 26.5334C31.5543 26.6669 31.5828 26.9141 31.4484 27.0824C31.314 27.2512 31.0669 27.2796 30.8977 27.1456L29.2398 25.8323Z" fill="white"/>
<path d="M37.1137 24.3761L37.0631 24.4397L44.051 29.9671L44.1016 29.9034L37.1137 24.3761Z" fill="white"/>
<path d="M48.352 20.5726L42.3352 28.1343L42.399 28.1848L48.4158 20.6231L48.352 20.5726Z" fill="white"/>
<path d="M30.3619 22.5267L30.3113 22.5903L42.3399 32.1049L42.3905 32.0412L30.3619 22.5267Z" fill="white"/>
<path d="M40.3115 14.2128L33.9131 22.2542L33.9769 22.3046L40.3753 14.2633L40.3115 14.2128Z" fill="white"/>
<path d="M34.5528 16.7469L34.5022 16.8105L46.7811 26.523L46.8317 26.4594L34.5528 16.7469Z" fill="white"/>
<path d="M0.662248 29.117C-0.0947694 28.5183 -0.221468 27.4215 0.378988 26.6672L8.44102 16.5334C9.04102 15.7795 10.1415 15.6523 10.8985 16.2505L20.909 24.1682C21.6651 24.7665 21.7922 25.8641 21.1922 26.6185L13.1297 36.7518C12.5297 37.5061 11.4288 37.6325 10.6727 37.0342L5.82427 33.1999C5.65413 33.0654 5.62607 32.8191 5.76046 32.6504C5.89485 32.4817 6.14146 32.4528 6.3116 32.5872L8.59034 34.3891L10.0139 32.5999C10.1478 32.4316 10.3949 32.4027 10.5646 32.5367C10.7342 32.6707 10.7628 32.9179 10.6284 33.0862L9.20483 34.8755L11.1605 36.422C11.5768 36.7514 12.1854 36.6819 12.5157 36.2659L14.8773 33.2973L12.0392 31.0529C11.8695 30.9189 11.841 30.6725 11.9759 30.5038C12.1103 30.3346 12.3573 30.3062 12.5266 30.4406L15.3646 32.6851L18.899 28.2426L15.9773 25.9318C15.8076 25.7978 15.7795 25.5519 15.9144 25.3823C16.0483 25.214 16.2954 25.1852 16.465 25.3191L19.3872 27.6304L20.5782 26.1326C20.9085 25.7175 20.8384 25.1107 20.4221 24.7814L14.9338 20.4408L13.1429 22.6916L14.032 23.395C14.2012 23.5285 14.2297 23.7753 14.0953 23.944C13.961 24.1132 13.7134 24.1416 13.5442 24.0081L12.6551 23.3047L9.12066 27.7472L9.3917 27.9615C9.56094 28.0951 9.58944 28.3414 9.45505 28.5106C9.32066 28.6798 9.07315 28.7073 8.90392 28.5738L7.74599 27.6579C7.57631 27.5239 7.54826 27.2776 7.68265 27.1089C7.81749 26.9401 8.06364 26.9117 8.23333 27.0457L8.50573 27.2609L14.3184 19.9545L10.4103 16.8641C9.99397 16.5343 9.38537 16.6047 9.0555 17.0197L3.8419 23.5723L5.78128 25.1057C5.95051 25.2397 5.97947 25.4861 5.84463 25.6553L4.47087 27.3818C4.33648 27.5505 4.08942 27.579 3.91973 27.445C3.7505 27.3105 3.72199 27.0647 3.85638 26.8959L4.98625 25.4757L3.35412 24.1849L0.992114 27.1535C0.661343 27.5695 0.731479 28.1754 1.14822 28.5052L2.00253 29.181L2.66271 28.3513C2.79665 28.1826 3.04326 28.1537 3.21339 28.2882C3.38217 28.4217 3.41068 28.669 3.27674 28.8372L2.61791 29.666L2.80841 29.8171C2.97764 29.9507 3.00615 30.1979 2.87176 30.3662C2.73737 30.5349 2.49031 30.5633 2.32108 30.4294L0.662248 29.117Z" fill="white"/>
<path d="M8.53548 27.66L8.48486 27.7236L15.4728 33.251L15.5234 33.1874L8.53548 27.66Z" fill="white"/>
<path d="M19.7735 23.857L13.7567 31.4187L13.8205 31.4692L19.8373 23.9075L19.7735 23.857Z" fill="white"/>
<path d="M1.78377 25.8104L1.73315 25.874L13.7618 35.3886L13.8124 35.3249L1.78377 25.8104Z" fill="white"/>
<path d="M11.7331 17.497L5.33472 25.5383L5.39852 25.5888L11.7969 17.5475L11.7331 17.497Z" fill="white"/>
<path d="M5.9742 20.0309L5.92358 20.0945L18.2025 29.807L18.2531 29.7434L5.9742 20.0309Z" fill="white"/>
</svg>
