<svg width="26" height="23" viewBox="0 0 26 23" fill="none" xmlns="http://www.w3.org/2000/svg">
<path d="M12.651 21.8698L12.6516 21.8704C12.747 21.9534 12.8703 22 13 22C13.1297 22 13.2534 21.9532 13.3485 21.8705L13.3488 21.8702C14.4065 20.9505 15.4249 20.0874 16.3193 19.3298C16.3197 19.3294 16.3201 19.3291 16.3205 19.3287L16.3207 19.3285C18.9623 17.0901 21.1472 15.2345 22.6533 13.4274L22.6533 13.4273C24.3023 11.4491 25 9.66666 25 7.76929C25 5.87361 24.3475 4.16375 23.2043 2.93079C22.0507 1.6867 20.4709 1 18.7369 1C17.4606 1 16.2996 1.39644 15.2614 2.19486L15.2613 2.1949C14.7322 2.60177 14.2446 3.10598 13.8086 3.70525L12.9998 4.81684L12.1913 3.70509C11.7556 3.10607 11.2679 2.60184 10.7388 2.19486L12.651 21.8698ZM12.651 21.8698C11.5967 20.9531 10.5808 20.0922 9.68871 19.3364L12.651 21.8698ZM9.68795 19.3356L9.68792 19.3357L9.68795 19.3356ZM9.68795 19.3356L9.68037 19.3292M9.68795 19.3356L9.68037 19.3292M9.68037 19.3292C7.03829 17.0905 4.85307 15.2345 3.34688 13.4275M9.68037 19.3292L3.34688 13.4275M3.34688 13.4275C1.69786 11.449 1 9.6666 1 7.76929M3.34688 13.4275L2.57874 14.0678L1 7.76929M1 7.76929C1 5.87368 1.65266 4.16379 2.79586 2.93079L1 7.76929ZM2.79589 2.93075C3.94951 1.68668 5.52909 1 7.26331 1C8.53959 1 9.70053 1.39643 10.7387 2.1948L2.79589 2.93075Z" stroke="#626262" stroke-width="2"/>
</svg>
