<svg width="44" height="60" viewBox="0 0 44 60" fill="none" xmlns="http://www.w3.org/2000/svg">
<path d="M13.1767 28.2203C13.1767 27.9772 13.4205 27.7334 13.6642 27.7334C13.908 27.7334 14.1511 27.9772 14.1511 28.2203V29.1176H29.9295V18.7052H14.1511V24.401C14.1511 24.6448 13.9073 24.8879 13.6642 24.8879C13.4205 24.8879 13.1767 24.6448 13.1767 24.401V18.7052H11.1431C10.9813 18.7052 10.8181 18.7052 10.7375 18.5434C10.575 18.3003 10.6562 17.9711 10.8993 17.8898L21.7132 10.575C21.8757 10.4937 22.1236 10.4937 22.2855 10.575L33.1813 17.8086C33.2619 17.8898 33.3431 18.0565 33.3431 18.219C33.3431 18.544 33.1813 18.7059 32.8556 18.7059H30.9032V29.6052C30.9032 29.8489 30.6602 30.0927 30.4164 30.0927H13.6635C13.4198 30.0927 13.176 29.8489 13.176 29.6052V28.2203H13.1767ZM30.3358 17.7266C30.6608 17.7266 30.9852 17.7266 31.3102 17.7266L22.0423 11.6293L12.7711 17.8079L30.3358 17.7266Z" fill="white"/>
<path d="M14.3949 11.6299H16.1041C16.3472 11.6299 16.591 11.8736 16.591 12.1167V14.9671C16.591 15.1296 16.5097 15.2921 16.3472 15.3734L14.638 16.5909C14.3942 16.6722 14.0698 16.6722 13.9073 16.4291C13.826 16.3478 13.826 16.2673 13.826 16.1041V12.1987C13.826 11.8737 14.0698 11.6306 14.3136 11.6306H14.3949V11.6299ZM15.6165 12.6856H14.8818V15.2102L15.6165 14.7233V12.6856Z" fill="white"/>
<path d="M10.9813 30.0919C10.7376 30.0919 10.575 29.8481 10.575 29.6043C10.575 29.3612 10.7376 29.1174 10.9813 29.1174H33.0195C33.2626 29.1174 33.5064 29.3612 33.5064 29.6043C33.5064 29.8481 33.2626 30.0919 33.0195 30.0919H10.9813Z" fill="white"/>
<path d="M13.5017 12.6043C13.2579 12.6043 13.0148 12.4425 13.0148 12.1167C13.0148 11.873 13.2586 11.6299 13.5017 11.6299H16.9154C17.2452 11.6299 17.407 11.8736 17.407 12.1167C17.407 12.4425 17.2452 12.6043 16.9154 12.6043H13.5017Z" fill="white"/>
<path d="M22.2049 0C28.2203 0 33.6723 2.4392 37.6548 6.4258C41.5601 10.4124 44 15.8596 44 21.8764C44 26.4304 41.5601 32.6132 37.493 38.9584C33.5876 44.9738 28.2209 51.1564 22.2861 55.7924L22.0423 56.0362L21.7132 55.7924C15.7784 51.1564 10.4083 44.9738 6.50709 38.9584C2.52049 32.6132 0 26.4311 0 21.8764C0 15.8603 2.43989 10.4131 6.4258 6.4258C10.4083 2.4392 15.8597 0 21.8757 0C21.8764 0 22.1236 0 22.2049 0ZM36.9248 7.15577C33.182 3.33169 27.8966 0.977201 22.2056 0.977201H21.8764C16.1041 0.977201 10.9 3.33169 7.07591 7.15577C3.33722 10.8986 0.978588 16.1027 0.978588 21.8757C0.978588 26.1866 3.41781 32.2874 7.31902 38.3889C11.1431 44.3243 16.2659 50.2626 22.0423 54.8139C27.734 50.2633 32.9375 44.3243 36.681 38.3889C40.5822 32.2881 43.0256 26.1866 43.0256 21.8757C43.0256 16.1034 40.7441 10.8993 36.9248 7.15577Z" fill="white"/>
<path d="M29.0363 48.5541C31.9637 48.9605 34.403 49.6904 36.1893 50.5065C37.9798 51.4809 39.0396 52.6213 39.0396 53.8395C39.0396 55.5495 37.006 57.0955 33.8348 58.0699C30.8226 59.0437 26.5929 59.6931 22.0423 59.6931C17.407 59.6931 13.2579 59.0437 10.1645 58.0699C6.99393 57.0955 5.04163 55.5495 5.04163 53.8395C5.04163 52.622 6.10077 51.4809 7.89127 50.5065C9.59705 49.6904 12.0362 48.9605 14.963 48.5541L15.2068 48.4729L15.454 48.7167C16.509 49.8536 17.6494 50.9947 18.8677 52.0539C19.8421 53.0283 20.9012 53.9215 22.0417 54.8147C23.0974 53.9215 24.1524 53.0283 25.2122 52.0539C26.3492 50.9947 27.4903 49.8543 28.6265 48.7167L28.7884 48.4729L29.0363 48.5541ZM35.7024 51.4809C34.1598 50.669 31.8825 50.0155 29.1995 49.5286C28.1397 50.669 27.0034 51.806 25.8623 52.7845C24.726 53.8396 23.5037 54.8952 22.3674 55.8731L22.0423 56.1169L21.7132 55.8731C20.4956 54.8952 19.274 53.8396 18.1377 52.7845C16.9966 51.806 15.9416 50.6697 14.8811 49.5286C12.1981 50.0155 9.9207 50.669 8.29755 51.4809C6.91336 52.2157 6.02017 53.0276 6.02017 53.8395C6.02017 55.0578 7.72529 56.1982 10.4937 57.0955C13.4204 58.0699 17.4876 58.6381 22.0423 58.6381C26.5117 58.6381 30.5789 58.0699 33.5057 57.0955C36.2706 56.1982 37.9791 55.0578 37.9791 53.8395C37.9798 53.0276 37.1679 52.2157 35.7024 51.4809Z" fill="white"/>
</svg>
