<svg width="50" height="65" viewBox="0 0 50 65" fill="none" xmlns="http://www.w3.org/2000/svg">
<path d="M45.5441 1.26851C45.1198 1.26851 44.9022 0.952045 44.9022 0.633792C44.9022 0.317331 45.1198 0 45.5441 0H49.3645C49.6827 0 50 0.317331 50 0.633792V55.4775C50 55.8997 49.6818 56.1113 49.3645 56.1113H8.17131C7.85399 56.1113 7.53577 55.8997 7.53577 55.4775V0.633792C7.53577 0.317331 7.85399 0 8.17131 0H34.3956C34.8199 0 35.0312 0.317331 35.0312 0.633792C35.0312 0.952045 34.8199 1.26851 34.3956 1.26851H8.80685V54.8374H48.7236V1.26851H45.5441Z" fill="white"/>
<path d="M15.9236 27.8378C15.6053 27.8378 15.2871 27.5213 15.2871 27.204C15.2871 26.8866 15.6053 26.5702 15.9236 26.5702H42.4598C42.8895 26.5702 43.1007 26.8875 43.1007 27.204C43.1007 27.5204 42.8895 27.8378 42.4598 27.8378H15.9236Z" fill="white"/>
<path d="M15.9236 33.5566C15.6053 33.5566 15.2871 33.2402 15.2871 32.9228C15.2871 32.6055 15.6053 32.2881 15.9236 32.2881H37.5795C37.8978 32.2881 38.216 32.6055 38.216 32.9228C38.216 33.2402 37.8978 33.5566 37.5795 33.5566H15.9236Z" fill="white"/>
<path d="M15.9236 39.2743C15.6053 39.2743 15.2871 39.0636 15.2871 38.6396C15.2871 38.3222 15.6053 38.0057 15.9236 38.0057H42.4598C42.8895 38.0057 43.1007 38.3231 43.1007 38.6396C43.1007 39.0636 42.8895 39.2743 42.4598 39.2743H15.9236Z" fill="white"/>
<path d="M15.9236 44.9922C15.6053 44.9922 15.2871 44.7806 15.2871 44.3584C15.2871 44.0419 15.6053 43.7236 15.9236 43.7236H33.8652C34.1834 43.7236 34.5016 44.041 34.5016 44.3584C34.5016 44.7806 34.1834 44.9922 33.8652 44.9922H15.9236Z" fill="white"/>
<path d="M0.636418 8.88867H8.17122C8.48944 8.88867 8.80676 9.20606 8.80676 9.52252V54.8374H41.8242C42.1424 54.8374 42.4598 55.1601 42.4598 55.4775V64.3653C42.4598 64.7893 42.1424 65 41.8242 65H0.63554C0.317321 65 0 64.7893 0 64.3653V9.52252C0.000898924 9.20516 0.318199 8.88867 0.636418 8.88867ZM7.53568 10.1572H1.27286V63.7314H41.1887V56.1113H8.17212C7.8548 56.1113 7.53658 55.8997 7.53658 55.4775V10.1572H7.53568Z" fill="white"/>
<path d="M17.6242 18.7384C17.6242 18.4211 17.9425 18.0992 18.2607 18.0992C18.685 18.0992 18.8962 18.4211 18.8962 18.7384V20.007H31.5288V11.8525H18.8962V15.5568C18.8962 15.8741 18.685 16.1915 18.2607 16.1915C17.9425 16.1915 17.6242 15.8741 17.6242 15.5568V11.8525H16.2408C16.0287 11.8525 15.8165 11.7467 15.7113 11.6418C15.4992 11.3254 15.6053 10.9022 15.8174 10.6853L24.9478 4.76219C25.0539 4.55062 25.3712 4.55062 25.5842 4.76219L34.6076 10.6853C34.8198 10.7965 34.9259 11.008 34.9259 11.2196C34.9259 11.6428 34.6076 11.8534 34.2903 11.8534H32.8017V20.6417C32.8017 21.0648 32.5895 21.2764 32.1661 21.2764H18.2616C17.9434 21.2764 17.6252 21.0648 17.6252 20.6417V18.7384H17.6242ZM32.1652 10.5786L25.266 6.03519L18.2616 10.5786H32.1652Z" fill="white"/>
<path d="M16.1358 21.2755C15.7124 21.2755 15.5002 21.0639 15.5002 20.6407C15.5002 20.3234 15.7124 20.007 16.1358 20.007H34.3965C34.7138 20.007 35.0321 20.3243 35.0321 20.6407C35.0321 21.0639 34.7138 21.2755 34.3965 21.2755H16.1358Z" fill="white"/>
<path d="M30.3629 6.0351C30.3629 5.71237 30.6811 5.39502 30.9994 5.39502C31.4228 5.39502 31.741 5.71147 31.741 6.0351V8.88862C31.741 9.20597 31.4219 9.52246 30.9994 9.52246C30.682 9.52246 30.3629 9.20597 30.3629 8.88862V6.0351Z" fill="white"/>
</svg>
