<svg width="30" height="33" viewBox="0 0 30 33" fill="none" xmlns="http://www.w3.org/2000/svg">
<path fill-rule="evenodd" clip-rule="evenodd" d="M27.4903 18.1526C26.772 24.079 22.8877 25.0061 21.489 25.3399L21.489 25.3399C21.3344 25.3768 21.2101 25.4065 21.1239 25.4348C20.7546 25.556 17.3248 26.4292 13.0139 26.1404L8.34056 31.3197L8.33571 25.3516L8.29888 25.3419C2.0941 23.5776 2.22785 17.0195 2.30014 13.475L2.30267 13.3504C2.37344 9.83722 3.0179 6.95879 4.93396 5.02342C8.37351 1.83282 15.4611 2.30962 15.4611 2.30962C21.4467 2.33674 24.3154 4.18104 24.9802 4.79937C27.1879 6.7358 28.3131 11.3675 27.4903 18.1526ZM26.6132 3.1566C25.8272 2.41622 22.6503 0.0553463 15.5744 0.0232915C15.5744 0.0232915 7.23089 -0.492297 3.1633 3.32814C0.899331 5.64644 0.102729 9.03758 0.0184006 13.2447C-0.0649418 17.4518 -0.174503 25.3331 7.24741 27.471L7.25423 27.473L7.25036 30.7342C7.25036 30.7342 7.20384 32.0552 8.0519 32.3236C8.90901 32.5961 9.47062 31.9424 10.2028 31.0901L10.2029 31.09C10.3482 30.9208 10.5003 30.7437 10.6628 30.5646C11.2016 29.9715 11.944 29.0992 12.5042 28.4324C17.5807 28.8676 21.4845 27.8693 21.9274 27.7221C22.0193 27.6915 22.1494 27.6576 22.311 27.6155C23.9528 27.1877 28.8368 25.9151 29.6953 18.7398C30.6683 10.6134 29.2232 5.4749 26.6132 3.1566ZM22.0864 19.1343C22.0834 19.1315 21.1347 18.3222 20.6714 17.9733C20.2343 17.6448 19.5374 17.2028 19.1479 16.978C18.4491 16.5797 17.7348 16.8297 17.4402 17.2212L16.8277 18.0091C16.5137 18.4084 16.0301 18.3415 15.9031 18.3154C14.9978 18.0886 14.0355 17.5226 13.0508 16.569C12.0545 15.6066 11.4517 14.6016 11.2366 13.5568L11.221 13.4879C11.1629 13.0586 11.2346 12.8599 11.41 12.5673L11.443 12.5402C11.5591 12.4322 11.7031 12.3176 11.8524 12.1988C12.2349 11.8943 12.6522 11.5621 12.7261 11.2415C12.9875 10.5701 12.0387 9.26704 11.6598 8.74669C11.6017 8.66688 11.557 8.60549 11.5321 8.56761C11.5321 8.56761 10.5804 7.30769 10.2422 7.06728C9.8768 6.76301 9.31083 6.5895 8.74001 6.94038L8.71091 6.96166C7.07111 8.07133 6.47702 8.70914 6.63886 9.66084L6.72319 10.0437C7.55472 12.6653 9.16067 15.4604 11.5554 17.9491C13.924 20.4069 16.4865 21.879 19.0122 22.8986C19.6683 23.1167 20.3486 22.9287 21.0465 22.3327L21.0582 22.3239C21.5931 21.8238 22.0167 21.2888 22.3326 20.716L22.3355 20.7044C22.6426 20.0987 22.5389 19.5249 22.0864 19.1343ZM17.9666 13.2105C17.9714 13.3132 18.0548 13.3936 18.1547 13.3936V13.3937H18.1643C18.2679 13.3879 18.3484 13.2977 18.3435 13.1911C18.3057 12.4148 18.0868 11.811 17.6932 11.3943C17.2979 10.9766 16.7251 10.744 15.9885 10.7033C15.8839 10.6984 15.7957 10.7798 15.7898 10.8864C15.784 10.9929 15.8645 11.0841 15.9682 11.0899C16.6058 11.1248 17.0953 11.3177 17.4219 11.6627C17.7504 12.0106 17.9336 12.5311 17.9666 13.2105ZM20.0232 14.0348H20.0184C19.9146 14.032 19.8323 13.9438 19.8342 13.8372C19.8633 12.5327 19.4825 11.4298 18.7013 10.5576C18.3127 10.1224 17.8407 9.7783 17.297 9.53509C16.7523 9.2918 16.1175 9.14164 15.4119 9.0883C15.3082 9.08049 15.2297 8.98753 15.2375 8.88183C15.2452 8.77523 15.3354 8.69476 15.4391 8.70257C16.9452 8.816 18.1363 9.35189 18.9804 10.2968C19.8285 11.2437 20.2432 12.4387 20.2122 13.8459C20.2093 13.9515 20.125 14.0348 20.0232 14.0348ZM21.7476 14.6089C21.7486 14.7156 21.8328 14.8009 21.9365 14.8009H21.9383C22.0421 14.7999 22.1264 14.7128 22.1254 14.6061C22.1157 13.4072 21.9335 12.3179 21.5827 11.3711C21.2299 10.4183 20.6968 9.58194 19.9981 8.88413C18.6054 7.49534 16.8522 6.78397 14.785 6.76844H14.784C14.6802 6.76844 14.596 6.85375 14.595 6.96036C14.594 7.06696 14.6784 7.15416 14.7821 7.15515C15.7667 7.16197 16.6826 7.33449 17.5044 7.66786C18.3244 8.00024 19.0745 8.50227 19.7345 9.16038C20.3936 9.81939 20.8966 10.6093 21.23 11.5077C21.5654 12.4129 21.7389 13.4557 21.7476 14.6089Z" fill="white"/>
</svg>
